Coordinates
version=1
nRows=9
nColumns=36
inDegrees=yes

Units are S.I. units (second, meters, Newtons, ...)
If the header above contains a line with 'inDegrees', this indicates whether rotational values are in degrees (yes) or radians (no).

endheader
time	pelvis_tilt	pelvis_list	pelvis_rotation	pelvis_tx	pelvis_ty	pelvis_tz	hip_flexion_r	hip_adduction_r	hip_rotation_r	knee_angle_r	knee_angle_r_beta	ankle_angle_r	subtalar_angle_r	mtp_angle_r	hip_flexion_l	hip_adduction_l	hip_rotation_l	knee_angle_l	knee_angle_l_beta	ankle_angle_l	subtalar_angle_l	mtp_angle_l	lumbar_extension	lumbar_bending	lumbar_rotation	arm_flex_r	arm_add_r	arm_rot_r	elbow_flex_r	pro_sup_r	arm_flex_l	arm_add_l	arm_rot_l	elbow_flex_l	pro_sup_l
      0.00000000	      2.42324214	     -1.61501232	     -1.67601288	     -1.05977725	      1.31051757	     -0.08694722	     -4.30836729	      1.31751233	      3.60056732	      1.77546489	      0.03098771	      4.11119526	    -13.16895386	     -5.39594765	     -6.50593797	     -3.01822348	      1.71562489	      0.39915701	      0.00696660	      7.79970187	    -11.48101013	     -5.39594765	     -9.51517181	      1.55493054	     -2.02067499	      2.34409095	     -7.02552602	      7.74335845	     22.95318975	     78.01821618	      2.45955094	     -6.87056163	     19.71184601	     19.20638884	     64.73359851
      0.00416670	      0.09969247	     -1.61850466	     -2.13487567	     -1.05662596	      1.30656129	     -0.08727476	     -1.66097334	      1.34237596	      4.63270867	      2.45388999	      0.04282846	      6.61627416	    -11.25226724	     -5.81187331	     -3.82473550	     -2.73862476	      1.10472030	      0.41267159	      0.00720248	      7.33477137	    -11.24921241	     -5.81187331	     -6.22313576	      1.84411133	     -1.46183007	      1.00988070	     -6.18061817	      2.92618636	     22.35827443	     77.44329960	      1.86612132	     -5.28747048	     14.21704324	     18.00465311	     64.66535371
      0.00833330	     -0.89527768	     -1.00253728	     -3.32447142	     -1.05636880	      1.30444662	     -0.08599036	     -0.59322844	      0.55583538	      4.65873808	      2.27536695	      0.03971264	      7.12790442	    -10.20930119	     -6.06313157	     -2.84894427	     -1.97866429	     -0.56326327	      0.37826964	      0.00660205	      7.53940302	    -10.56970314	     -6.06313157	     -4.75242261	      0.93203756	     -1.04296933	      0.59386935	     -5.79906531	      2.36382303	     22.38173143	     76.57800538	      1.15358718	     -5.53984636	     14.06921564	     18.31022349	     64.70951662
      0.01250000	     -1.04908854	     -0.64673635	     -3.87455535	     -1.06311049	      1.30440355	     -0.08943874	     -0.11430767	      0.03259122	      4.84580353	      2.18168007	      0.03807750	      7.27819383	     -9.92578975	     -6.06997013	     -2.68953525	     -1.39611319	     -1.16363378	      0.30573855	      0.00533614	      7.54375649	    -10.72081914	     -6.06997013	     -4.70904777	      0.65152009	     -0.89076550	      0.82374520	     -5.86266819	      2.31398247	     22.36310864	     76.62873771	      1.33297995	     -5.56126837	     14.23359104	     18.44152869	     64.81753244
      0.01666670	     -1.20300224	     -0.51744371	     -4.43287296	     -1.05699615	      1.30402102	     -0.08469081	      0.03022304	     -0.08731108	      5.15019542	      2.00721093	      0.03503244	      7.57167055	     -9.25152056	     -6.11819581	     -2.69855958	     -1.25920704	     -2.22326008	      0.26999216	      0.00471225	      8.13129617	     -9.57422976	     -6.11819581	     -4.12569269	      0.54630935	     -0.33545320	      0.63782443	     -5.85209148	      2.15818718	     22.01866522	     76.97157907	      1.22635820	     -5.62607771	     15.90028990	     18.69450007	     65.57181603
      0.02083330	     -1.02823572	     -0.39410800	     -4.76904658	     -1.05711338	      1.30408105	     -0.08408396	     -0.28363492	     -0.19665573	      5.29616275	      1.81859705	      0.03174051	      7.59233249	     -9.31378627	     -6.30178050	     -2.92938273	     -1.08445471	     -2.52185303	      0.24316090	      0.00424396	      8.26257898	     -9.61288421	     -6.30178050	     -4.24893120	      0.42252127	     -0.13346987	      0.72582415	     -5.80887349	      2.00703186	     22.10812024	     76.26894564	      1.33573823	     -5.62068964	     16.54959570	     18.60601750	     65.48752717
      0.02500000	     -0.96222654	     -0.26317162	     -5.06722188	     -1.05752691	      1.30400643	     -0.08398738	     -0.42258275	     -0.33371139	      5.63709243	      1.71375064	      0.02991059	      7.60926814	     -9.58489817	     -6.80048402	     -3.04757886	     -0.97394819	     -2.71555870	      0.24465472	      0.00427003	      8.17428505	     -9.83076563	     -6.80048402	     -4.14701927	      0.36509980	      0.28944237	      0.74461776	     -5.77260978	      0.98996177	     22.08350219	     79.11994765	      1.66174702	     -5.73244864	     19.45476284	     17.70449594	     65.29340980
      0.02916670	     -0.78656475	     -0.20858315	     -5.35619699	     -1.05740767	      1.30420054	     -0.08362523	     -0.73824056	     -0.41024313	      5.69762303	      1.57195272	      0.02743575	      7.45533729	     -9.74753161	     -6.87804359	     -3.28105975	     -0.88181407	     -3.04492945	      0.24870617	      0.00434074	      8.21944960	     -9.75661755	     -6.87804359	     -4.30347628	      0.32030782	      0.46892467	      0.93537891	     -5.77318615	      1.00766778	     21.99565511	     78.35331895	      1.62692885	     -5.68189575	     19.28289489	     17.58093357	     64.94144930
      0.03333330	     -0.93667596	     -0.12791769	     -5.39739448	     -1.05763139	      1.30376744	     -0.08369324	     -0.68559479	     -0.45129810	      5.77910378	      1.45128447	      0.02532969	      7.34341304	    -10.11432024	     -6.99509795	     -3.13865182	     -0.79278911	     -2.91849597	      0.24715974	      0.00431375	      8.05966943	    -10.13610835	     -6.99509795	     -4.08149203	      0.26184729	      0.47905324	      1.07749813	     -5.78425479	      1.55365668	     21.82786006	     77.46500219	      1.62520518	     -5.65693058	     19.36659945	     17.23575886	     64.44219519
